<svg width="51" height="50" viewBox="0 0 51 50" fill="none" xmlns="http://www.w3.org/2000/svg">
<path d="M50.2459 27.7324C50.0778 28.2545 49.9871 28.7982 49.9768 29.3463C49.1666 35.1872 46.3459 40.5672 41.9961 44.5684C39.496 46.901 36.5322 48.6854 33.2962 49.8064C33.0831 49.8905 32.8574 49.9385 32.6283 49.9484C32.4483 49.9721 32.2652 49.9541 32.0933 49.8958C31.9213 49.8375 31.7653 49.7404 31.6373 49.6122C31.5092 49.4839 31.4127 49.3279 31.3551 49.1564C31.2976 48.9849 31.2806 48.8025 31.3056 48.6234C31.3056 46.5344 31.3126 44.4454 31.3237 42.3564C31.3535 41.5927 31.3101 40.8279 31.1941 40.0724C31.0277 38.8929 30.4905 37.7961 29.6594 36.9394C30.6999 36.7644 31.6922 36.6394 32.6615 36.3914C34.8036 35.9315 36.757 34.8397 38.2668 33.2584C39.8143 31.4508 40.7456 29.2007 40.9264 26.8324C41.1582 25.2516 41.1355 23.644 40.8591 22.0703C40.5435 20.4807 39.834 18.9947 38.7951 17.7474C38.6984 17.6495 38.6323 17.5258 38.6048 17.3912C38.5774 17.2567 38.5898 17.117 38.6405 16.9894C39.1988 14.9647 39.0954 12.8156 38.3452 10.8534C38.2026 10.4454 37.8671 10.5624 37.606 10.5674C36.6556 10.6211 35.725 10.8589 34.8661 11.2674C33.7622 11.7436 32.7116 12.3338 31.7314 13.0284C31.6305 13.1068 31.5119 13.1596 31.3859 13.1821C31.2599 13.2046 31.1303 13.1961 31.0083 13.1574C27.1516 12.1284 23.0908 12.1284 19.2341 13.1574C19.1039 13.1951 18.9666 13.2016 18.8335 13.1764C18.7003 13.1512 18.575 13.095 18.4678 13.0124C16.9775 11.9304 15.2945 11.1397 13.5082 10.6823C12.0458 10.3663 11.8751 10.4744 11.5115 11.9744C11.0449 13.6864 11.0881 15.4964 11.6361 17.1844C11.6671 17.2593 11.6735 17.3421 11.6541 17.4208C11.6348 17.4996 11.5909 17.5701 11.5286 17.6224C9.4134 20.0744 8.90519 22.9974 9.2075 26.1624C9.32575 27.8004 9.72666 29.4059 10.3926 30.9084C10.9773 32.1483 11.8191 33.2509 12.8626 34.1435C13.9062 35.0362 15.1277 35.6987 16.447 36.0874C17.7768 36.5111 19.1464 36.7993 20.5347 36.9474C19.8024 37.6708 19.3154 38.6039 19.1417 39.6164C19.1209 39.882 19.0119 40.1333 18.8319 40.3305C18.6519 40.5277 18.411 40.6595 18.1474 40.7054C15.3432 41.5864 13.235 40.7953 11.6592 38.2423C11.2955 37.5618 10.7809 36.9727 10.1544 36.5197C9.52788 36.0668 8.80597 35.762 8.04344 35.6284C7.7187 35.5847 7.3883 35.612 7.07523 35.7083C6.65239 35.8253 6.56401 36.1174 6.85427 36.4654C7.04329 36.6968 7.26765 36.8973 7.51916 37.0594C8.80833 37.8697 9.77663 39.0987 10.2601 40.5384C11.4161 43.7704 14.2916 44.8903 17.2354 44.6043C17.7707 44.5523 18.302 44.4594 18.8966 44.3764C18.8966 45.8824 18.9408 47.3904 18.8806 48.8944C18.8434 49.8044 17.9967 50.2044 17.0175 49.8664C14.5691 49.0279 12.2744 47.7974 10.2239 46.2234C5.19712 42.4807 1.75959 37.0001 0.588026 30.8604C-0.196566 27.2892 -0.196002 23.5913 0.589681 20.0204C1.37536 16.4494 2.92757 13.0899 5.13981 10.1724C6.97992 7.59325 9.31232 5.40023 12.0038 3.71872C14.6953 2.03722 17.6931 0.900115 20.826 0.372351C26.2359 -0.572232 31.8078 0.292184 36.6726 2.83079C41.5374 5.36939 45.4218 9.43946 47.7199 14.4063C49.0569 17.2029 49.8787 20.2157 50.1465 23.3014C50.1545 23.3914 50.1093 23.5124 50.2469 23.5504V23.9583C50.1867 24.0143 50.1987 24.0904 50.1967 24.1584C50.1947 24.2264 50.1867 24.3054 50.2469 24.3584V24.7654C50.1666 24.9612 50.1666 25.1806 50.2469 25.3764V26.7014C50.1806 26.7644 50.2007 26.8484 50.1967 26.9264C50.2068 27.0264 50.1676 27.1264 50.2469 27.2114L50.2459 27.7324Z" fill="#117EFF"/>
</svg>
